<?xml version="1.0" encoding="UTF-8" standalone="no"?>
<!-- Created with Inkscape (http://www.inkscape.org/) -->

<svg
   xml:space="preserve"
   sodipodi:docname="mockup.svg"
   inkscape:version="1.2 (dc2aeda, 2022-05-15)"
   id="svg182339"
   version="1.1"
   viewBox="0 0 11.78324 11.494968"
   height="43.445549"
   width="44.535084"
   xmlns:inkscape="http://www.inkscape.org/namespaces/inkscape"
   xmlns:sodipodi="http://sodipodi.sourceforge.net/DTD/sodipodi-0.dtd"
   xmlns:xlink="http://www.w3.org/1999/xlink"
   xmlns="http://www.w3.org/2000/svg"
   xmlns:svg="http://www.w3.org/2000/svg"><sodipodi:namedview
     id="namedview182341"
     pagecolor="#505050"
     bordercolor="#eeeeee"
     borderopacity="1"
     inkscape:showpageshadow="0"
     inkscape:pageopacity="0"
     inkscape:pagecheckerboard="0"
     inkscape:deskcolor="#505050"
     inkscape:document-units="mm"
     showgrid="false"
     inkscape:zoom="0.34578127"
     inkscape:cx="3152.2818"
     inkscape:cy="221.23813"
     inkscape:window-width="1920"
     inkscape:window-height="1055"
     inkscape:window-x="0"
     inkscape:window-y="25"
     inkscape:window-maximized="1"
     inkscape:current-layer="layer5"
     showguides="true"><sodipodi:guide
       position="-882.48649,-31.49899"
       orientation="1,0"
       id="guide25471"
       inkscape:locked="false" /><sodipodi:guide
       position="-877.74516,-110.66912"
       orientation="1,0"
       id="guide25473"
       inkscape:locked="false" /><sodipodi:guide
       position="-522.65319,-260.37179"
       orientation="1,0"
       id="guide35590"
       inkscape:locked="false" /><sodipodi:guide
       position="-527.39452,-226.08373"
       orientation="1,0"
       id="guide38199"
       inkscape:locked="false" /></sodipodi:namedview><defs
     id="defs182336"><linearGradient
       id="linearGradient1057"
       x1="522.69"
       y1="412.73999"
       x2="908.96997"
       y2="799.01001"
       gradientTransform="matrix(-0.26458333,0,0,-0.26458333,266.89035,244.97243)"
       gradientUnits="userSpaceOnUse"><stop
         offset="0"
         stop-color="#fcee21"
         id="stop1061" /><stop
         offset="0.1"
         stop-color="#f7ec22"
         id="stop1063" /><stop
         offset="0.22"
         stop-color="#e7e624"
         id="stop1065" /><stop
         offset="0.36"
         stop-color="#cedd28"
         id="stop1067" /><stop
         offset="0.51"
         stop-color="#aad02d"
         id="stop1069" /><stop
         offset="0.67"
         stop-color="#7cbf33"
         id="stop1071" /><stop
         offset="0.83"
         stop-color="#45ab3b"
         id="stop1073" /><stop
         offset="0.99"
         stop-color="#049344"
         id="stop1075" /><stop
         offset="1"
         stop-color="#009245"
         id="stop1077" /></linearGradient><linearGradient
       inkscape:collect="always"
       xlink:href="#linearGradient1057"
       id="linearGradient198911"
       gradientUnits="userSpaceOnUse"
       gradientTransform="matrix(13.538845,0,0,13.538845,-2625.6978,-4130.266)"
       x1="413.80301"
       y1="291.04166"
       x2="118.47618"
       y2="291.04166" /><linearGradient
       inkscape:collect="always"
       xlink:href="#linearGradient1057"
       id="linearGradient478189"
       gradientUnits="userSpaceOnUse"
       gradientTransform="matrix(1.6425514,0,0,1.6425514,352.95802,-164.19644)"
       x1="413.80301"
       y1="291.04166"
       x2="118.47618"
       y2="291.04166" /><linearGradient
       inkscape:collect="always"
       xlink:href="#linearGradient1057"
       id="linearGradient653602"
       gradientUnits="userSpaceOnUse"
       gradientTransform="matrix(1.2985426,0,0,1.2985426,458.15644,-56.374736)"
       x1="413.80301"
       y1="291.04166"
       x2="118.47618"
       y2="291.04166" /><linearGradient
       inkscape:collect="always"
       xlink:href="#linearGradient1057"
       id="linearGradient741566"
       gradientUnits="userSpaceOnUse"
       gradientTransform="matrix(1.2985426,0,0,1.2985426,649.52306,-458.3974)"
       x1="413.80301"
       y1="291.04166"
       x2="118.47618"
       y2="291.04166" /><linearGradient
       inkscape:collect="always"
       xlink:href="#linearGradient1057"
       id="linearGradient818934"
       gradientUnits="userSpaceOnUse"
       gradientTransform="matrix(1.2985426,0,0,1.2985426,457.45349,-153.39616)"
       x1="413.80301"
       y1="291.04166"
       x2="118.47618"
       y2="291.04166" /><linearGradient
       inkscape:collect="always"
       xlink:href="#linearGradient1057"
       id="linearGradient892145"
       gradientUnits="userSpaceOnUse"
       gradientTransform="matrix(1.2985426,0,0,1.2985426,458.15644,-154.90639)"
       x1="413.80301"
       y1="291.04166"
       x2="118.47618"
       y2="291.04166" /><linearGradient
       inkscape:collect="always"
       xlink:href="#linearGradient1057"
       id="linearGradient1018698"
       gradientUnits="userSpaceOnUse"
       gradientTransform="matrix(1.2985426,0,0,1.2985426,453.34098,-54.508543)"
       x1="413.80301"
       y1="291.04166"
       x2="118.47618"
       y2="291.04166" /></defs><g
     inkscape:label="ios-home"
     inkscape:groupmode="layer"
     id="layer1"
     style="display:inline"
     transform="translate(-967.1532,-4.8358754)"><path
       style="display:inline;fill:#40b74c;fill-opacity:1;stroke-width:0.999999"
       d="m 974.70197,16.317241 c -0.0576,-0.01855 -0.12272,-0.0737 -0.15051,-0.127445 -0.0391,-0.07569 -0.0434,-0.190312 -0.0395,-1.07007 0.004,-0.953904 0.002,-0.985529 -0.0693,-1.237011 -0.04,-0.140425 -0.14553,-0.350332 -0.22782,-0.453334 -0.0584,-0.07304 -0.0643,-0.08519 -0.0455,-0.09247 0.0119,-0.0046 0.10826,-0.02261 0.21414,-0.03999 0.65447,-0.107464 1.11315,-0.280483 1.48156,-0.558871 0.51528,-0.389368 0.80455,-0.937481 0.91474,-1.73323 0.0301,-0.217567 0.0303,-0.735506 3.1e-4,-0.926454 -0.0673,-0.428829 -0.20303,-0.759007 -0.44448,-1.081633 l -0.0955,-0.127571 0.006,-0.084223 c 0.003,-0.046321 0.0177,-0.135657 0.0322,-0.198524 0.0204,-0.088398 0.0279,-0.167485 0.0328,-0.348926 0.007,-0.26537 -0.008,-0.406968 -0.0701,-0.655738 -0.0436,-0.174406 -0.0813,-0.261314 -0.12603,-0.290625 -0.0701,-0.045923 -0.37326,-0.00941 -0.63016,0.0759 -0.16113,0.053514 -0.32589,0.134328 -0.52309,0.256588 -0.24917,0.154489 -0.38921,0.198516 -0.62631,0.196926 -0.1108,-7.47e-4 -0.18637,-0.00953 -0.32487,-0.037783 -0.36251,-0.07394 -0.60211,-0.098425 -0.9649,-0.098609 -0.38877,-1.99e-4 -0.69049,0.031977 -1.14239,0.121834 l -0.25439,0.05058 -0.0808,-0.019936 c -0.0558,-0.013776 -0.13941,-0.053456 -0.27054,-0.128437 -0.40099,-0.229298 -0.70841,-0.357854 -0.99406,-0.415692 -0.3178,-0.064345 -0.35525,-0.04241 -0.43784,0.256396 -0.0561,0.203066 -0.0745,0.329642 -0.0811,0.556937 -0.006,0.224986 0.005,0.354461 0.0463,0.52871 0.0264,0.111064 0.0307,0.194318 0.0125,0.240999 -0.006,0.016346 -0.0422,0.06762 -0.0797,0.113944 -0.18003,0.222868 -0.31189,0.497625 -0.39068,0.814046 -0.0514,0.206402 -0.0722,0.365591 -0.0809,0.617747 -0.0161,0.468014 0.0652,0.949173 0.23278,1.37765 0.13694,0.350152 0.31243,0.602132 0.58058,0.833633 0.40911,0.353197 0.89947,0.554382 1.64911,0.676592 0.0695,0.01133 0.1282,0.02229 0.13048,0.02436 0.009,0.0079 -0.26695,0.715345 -0.2964,0.760807 -0.025,0.03865 -0.16786,0.10401 -0.30934,0.141556 -0.14542,0.03859 -0.41483,0.05392 -0.53802,0.03061 -0.1894,-0.03584 -0.35618,-0.11239 -0.51019,-0.23417 -0.12014,-0.09501 -0.21188,-0.200462 -0.34268,-0.393934 -0.22933,-0.339209 -0.44822,-0.507391 -0.76472,-0.587562 l -0.0861,-0.02182 -0.14656,0.03976 c -0.0806,0.02187 -0.14917,0.04238 -0.15237,0.04558 -0.006,0.0057 0.0294,0.06708 0.0892,0.155768 0.0169,0.02497 0.0743,0.07598 0.12763,0.113359 0.19306,0.135285 0.37815,0.341657 0.49713,0.554302 0.0232,0.04146 0.0759,0.150008 0.11711,0.241232 0.0884,0.195747 0.15695,0.305593 0.25802,0.413639 0.14547,0.155505 0.31357,0.260755 0.52355,0.327804 0.23183,0.07402 0.29083,0.08058 0.78659,0.08742 l 0.44819,0.0062 -7.6e-4,0.482987 c -8.8e-4,0.565198 -0.007,0.662627 -0.0486,0.723433 -0.044,0.06511 -0.12909,0.102489 -0.23279,0.102317 -0.0949,-1.61e-4 -0.15176,-0.0136 -0.32267,-0.07622 -0.61611,-0.225743 -1.18206,-0.551735 -1.63641,-0.942578 -1.18117,-1.016074 -1.89427,-2.193814 -2.1186,-3.499035 -0.0586,-0.340806 -0.0724,-0.513607 -0.073,-0.914419 -8.8e-4,-0.557941 0.0553,-1.01324 0.19259,-1.561345 0.54931,-2.192692 1.92393,-3.636825 4.03297,-4.236907 0.95848,-0.272716 1.8217,-0.32618 2.7219,-0.168588 1.6419,0.287442 3.12334,1.315017 3.9969,2.772376 0.60821,1.014664 0.90113,2.213159 0.82781,3.386974 -0.0681,1.089672 -0.42624,2.126485 -1.04131,3.014283 -0.69228,0.99924 -1.67512,1.753728 -2.82968,2.172247 -0.17101,0.06198 -0.26748,0.07504 -0.35241,0.04768 z m -3.78986,-1.802117 c -0.0648,-0.04411 -0.0682,-0.05776 -0.0354,-0.140273 0.016,-0.04031 0.0322,-0.07329 0.0359,-0.07329 0.004,0 0.0444,0.03503 0.0905,0.07785 l 0.0837,0.07786 -0.0449,0.04246 c -0.0525,0.04958 -0.0754,0.0523 -0.12962,0.01539 z m 0.44066,-0.05022 -0.0436,-0.05323 0.0452,-0.03742 c 0.0686,-0.05684 0.0937,-0.05883 0.14265,-0.01136 l 0.0416,0.04032 -0.0635,0.05693 c -0.0349,0.03131 -0.0669,0.05717 -0.0711,0.05745 -0.004,2.88e-4 -0.0272,-0.02343 -0.0512,-0.0527 z m -0.90125,-0.03801 c -0.0693,-0.04336 -0.0716,-0.0495 -0.0349,-0.09225 0.0249,-0.02901 0.0664,-0.02553 0.16317,0.01368 l 0.0827,0.03349 -0.0538,0.04409 c -0.0296,0.02425 -0.0615,0.0441 -0.071,0.0441 -0.009,0 -0.0482,-0.0194 -0.0861,-0.0431 z m -0.4053,-0.22232 -0.0646,-0.08494 0.0365,-0.03645 0.0364,-0.03644 0.0699,0.0651 0.0699,0.0651 -0.0387,0.05629 c -0.0213,0.03096 -0.0401,0.05629 -0.0418,0.05629 -0.002,0 -0.0321,-0.03822 -0.0677,-0.08494 z"
       id="path43539" /></g></svg>
